<svg width="128" height="128" viewBox="0 0 128 128" fill="none" xmlns="http://www.w3.org/2000/svg">
<mask id="path-1-inside-1_297_110" fill="white">
<path d="M0 10C0 4.47715 4.47715 0 10 0H118C123.523 0 128 4.47715 128 10V118C128 123.523 123.523 128 118 128H10C4.47715 128 0 123.523 0 118V10Z"/>
</mask>
<path d="M0 10C0 4.47715 4.47715 0 10 0H118C123.523 0 128 4.47715 128 10V118C128 123.523 123.523 128 118 128H10C4.47715 128 0 123.523 0 118V10Z" fill="#191C24"/>
<g clip-path="url(#paint0_angular_297_110_clip_path)" data-figma-skip-parse="true" mask="url(#path-1-inside-1_297_110)"><g transform="matrix(0 0.064 -0.064 0 64 64)"><foreignObject x="-1078.13" y="-1078.13" width="2156.25" height="2156.25"><div xmlns="http://www.w3.org/1999/xhtml" style="background:conic-gradient(from 90deg,rgba(73, 217, 207, 1) 0deg,rgba(185, 82, 237, 1) 69.256deg,rgba(104, 75, 249, 1) 122.503deg,rgba(57, 116, 237, 1) 229.299deg,rgba(73, 217, 207, 1) 360deg);height:100%;width:100%;opacity:1"></div></foreignObject></g></g><path d="M10 0V5H118V0V-5H10V0ZM128 10H123V118H128H133V10H128ZM118 128V123H10V128V133H118V128ZM0 118H5V10H0H-5V118H0ZM10 128V123C7.23858 123 5 120.761 5 118H0H-5C-5 126.284 1.71573 133 10 133V128ZM128 118H123C123 120.761 120.761 123 118 123V128V133C126.284 133 133 126.284 133 118H128ZM118 0V5C120.761 5 123 7.23858 123 10H128H133C133 1.71573 126.284 -5 118 -5V0ZM10 0V-5C1.71573 -5 -5 1.71573 -5 10H0H5C5 7.23858 7.23858 5 10 5V0Z" data-figma-gradient-fill="{&#34;type&#34;:&#34;GRADIENT_ANGULAR&#34;,&#34;stops&#34;:[{&#34;color&#34;:{&#34;r&#34;:0.28627452254295349,&#34;g&#34;:0.85098040103912354,&#34;b&#34;:0.81176471710205078,&#34;a&#34;:1.0},&#34;position&#34;:0.0},{&#34;color&#34;:{&#34;r&#34;:0.72549021244049072,&#34;g&#34;:0.32156863808631897,&#34;b&#34;:0.92941176891326904,&#34;a&#34;:1.0},&#34;position&#34;:0.19237788021564484},{&#34;color&#34;:{&#34;r&#34;:0.40784314274787903,&#34;g&#34;:0.29411765933036804,&#34;b&#34;:0.97647058963775635,&#34;a&#34;:1.0},&#34;position&#34;:0.34028723835945129},{&#34;color&#34;:{&#34;r&#34;:0.22352941334247589,&#34;g&#34;:0.45490196347236633,&#34;b&#34;:0.92941176891326904,&#34;a&#34;:1.0},&#34;position&#34;:0.63694304227828979},{&#34;color&#34;:{&#34;r&#34;:0.28627452254295349,&#34;g&#34;:0.85098040103912354,&#34;b&#34;:0.81176471710205078,&#34;a&#34;:1.0},&#34;position&#34;:1.0}],&#34;transform&#34;:{&#34;m00&#34;:7.8377398565450743e-15,&#34;m01&#34;:-128.0,&#34;m02&#34;:128.0,&#34;m10&#34;:128.0,&#34;m11&#34;:7.8377398565450743e-15,&#34;m12&#34;:-7.8377398565450743e-15},&#34;opacity&#34;:1.0,&#34;blendMode&#34;:&#34;NORMAL&#34;,&#34;stopsVar&#34;:[{&#34;color&#34;:{&#34;r&#34;:0.28627452254295349,&#34;g&#34;:0.85098040103912354,&#34;b&#34;:0.81176471710205078,&#34;a&#34;:1.0},&#34;position&#34;:0.0},{&#34;color&#34;:{&#34;r&#34;:0.72549021244049072,&#34;g&#34;:0.32156863808631897,&#34;b&#34;:0.92941176891326904,&#34;a&#34;:1.0},&#34;position&#34;:0.19237788021564484},{&#34;color&#34;:{&#34;r&#34;:0.40784314274787903,&#34;g&#34;:0.29411765933036804,&#34;b&#34;:0.97647058963775635,&#34;a&#34;:1.0},&#34;position&#34;:0.34028723835945129},{&#34;color&#34;:{&#34;r&#34;:0.22352941334247589,&#34;g&#34;:0.45490196347236633,&#34;b&#34;:0.92941176891326904,&#34;a&#34;:1.0},&#34;position&#34;:0.63694304227828979},{&#34;color&#34;:{&#34;r&#34;:0.28627452254295349,&#34;g&#34;:0.85098040103912354,&#34;b&#34;:0.81176471710205078,&#34;a&#34;:1.0},&#34;position&#34;:1.0}],&#34;visible&#34;:true}" mask="url(#path-1-inside-1_297_110)"/>
<circle cx="34" cy="72" r="14" fill="white"/>
<path d="M73 78C73 79.0506 72.7672 80.0909 72.3149 81.0615C71.8626 82.0321 71.1997 82.914 70.364 83.6569C69.5282 84.3997 68.5361 84.989 67.4442 85.391C66.3522 85.7931 65.1819 86 64 86C62.8181 86 61.6478 85.7931 60.5558 85.391C59.4639 84.989 58.4718 84.3997 57.636 83.6569C56.8003 82.914 56.1374 82.0321 55.6851 81.0615C55.2328 80.0909 55 79.0506 55 78" stroke="white" stroke-width="5"/>
<circle cx="94" cy="72" r="14" fill="white"/>
<defs>
<clipPath id="paint0_angular_297_110_clip_path"><path d="M10 0V5H118V0V-5H10V0ZM128 10H123V118H128H133V10H128ZM118 128V123H10V128V133H118V128ZM0 118H5V10H0H-5V118H0ZM10 128V123C7.23858 123 5 120.761 5 118H0H-5C-5 126.284 1.71573 133 10 133V128ZM128 118H123C123 120.761 120.761 123 118 123V128V133C126.284 133 133 126.284 133 118H128ZM118 0V5C120.761 5 123 7.23858 123 10H128H133C133 1.71573 126.284 -5 118 -5V0ZM10 0V-5C1.71573 -5 -5 1.71573 -5 10H0H5C5 7.23858 7.23858 5 10 5V0Z"/></clipPath></defs>
</svg>
